<?xml version="1.0"?>
<svg xmlns="http://www.w3.org/2000/svg" xmlns:xlink="http://www.w3.org/1999/xlink" version="1.1" id="Capa_1" x="0px" y="0px" viewBox="0 0 512 512" style="enable-background:new 0 0 512 512;" xml:space="preserve" width="512px" height="512px"><g><g>
	<g>
		<path d="M500.64,288.672c-6.752-2.048-14.048,0.576-17.952,6.432L464,323.168l-18.688-28.032    c-3.904-5.888-11.232-8.512-17.952-6.432C420.608,290.72,416,296.928,416,304v128c0,8.832,7.168,16,16,16c8.832,0,16-7.168,16-16    v-75.168l2.688,4.032c5.952,8.864,20.672,8.864,26.624,0l2.688-4.032V432c0,8.832,7.168,16,16,16c8.832,0,16-7.168,16-16V304    C512,296.928,507.392,290.72,500.64,288.672z" data-original="#000000" class="active-path" data-old_color="#000000" fill="#FFFFFF"/>
	</g>
</g><g>
	<g>
		<path d="M368,288h-64c-8.832,0-16,7.168-16,16c0,8.832,7.168,16,16,16h16v112c0,8.832,7.168,16,16,16c8.832,0,16-7.168,16-16V320    h16c8.832,0,16-7.168,16-16C384,295.168,376.832,288,368,288z" data-original="#000000" class="active-path" data-old_color="#000000" fill="#FFFFFF"/>
	</g>
</g><g>
	<g>
		<path d="M287.552,428.128l-32-128c-3.584-14.24-27.52-14.24-31.072,0l-32,128c-2.144,8.576,3.072,17.248,11.648,19.392    c8.48,2.016,17.248-3.104,19.392-11.648L228.48,416h23.04l4.96,19.872C258.304,443.168,264.8,448,272,448    c1.28,0,2.592-0.16,3.904-0.48C284.48,445.376,289.696,436.672,287.552,428.128z M236.48,384l3.52-14.016L243.52,384H236.48z" data-original="#000000" class="active-path" data-old_color="#000000" fill="#FFFFFF"/>
	</g>
</g><g>
	<g>
		<path d="M192,0C86.112,0,0,86.112,0,192c0,133.088,173.312,307.936,180.672,315.328C183.808,510.432,187.904,512,192,512    s8.192-1.568,11.328-4.672c6.24-6.24,6.24-16.384,0-22.624C201.6,482.976,32,312,32,192c0-88.224,71.776-160,160-160    s160,71.776,160,160c0,8.992-1.024,18.72-3.04,28.896c-1.696,8.672,3.936,17.088,12.608,18.784    c8.64,1.824,17.056-3.904,18.784-12.608c2.432-12.192,3.648-24,3.648-35.072C384,86.112,297.888,0,192,0z" data-original="#000000" class="active-path" data-old_color="#000000" fill="#FFFFFF"/>
	</g>
</g><g>
	<g>
		<path d="M192,96c-52.928,0-96,43.072-96,96s43.072,96,96,96c52.928,0,96-43.072,96-96C288,139.072,244.928,96,192,96z M192,256    c-35.296,0-64-28.704-64-64s28.704-64,64-64s64,28.704,64,64S227.296,256,192,256z" data-original="#000000" class="active-path" data-old_color="#000000" fill="#FFFFFF"/>
	</g>
</g></g> </svg>
