<?xml version="1.0"?>
<svg xmlns="http://www.w3.org/2000/svg" height="512px" viewBox="0 0 58 58" width="512px"><g><g id="029---Hair-Follicle-Moisturising"><path id="Shape" d="m37.185 4.685c.2083477-.45150922.053286-.98751089-.3639439-1.25804468-.41723-.27053379-.9698528-.19339801-1.2970561.18104468-3.125 3.622-6.747 9.774-8.482 19.71-.5287975 2.7092857-1.8556263 5.1985696-3.81 7.148-2.9044972 3.0250463-2.9800152 7.7795808-.1730547 10.8953443s7.5435687 3.535101 10.8542649.960941c3.3106963-2.5741601 4.0716551-7.2680117 1.7437898-10.7562853-2.1834817-3.1151967-3.158826-6.9184709-2.744-10.7.5943034-5.5792619 2.0348178-11.03547998 4.272-16.181z" data-original="#000000" class="active-path" data-old_color="#000000" fill="#FFFFFF"/><path id="Shape" d="m56 30h-15.47c2.8486708 5.4697078 1.4623062 12.1881752-3.3188431 16.0834597-4.7811492 3.8952844-11.6411646 3.8952844-16.4223138 0-4.7811493-3.8952845-6.1675139-10.6137519-3.3188431-16.0834597h-15.47c-1.1045695 0-2 .8954305-2 2v24c0 1.1045695.8954305 2 2 2h54c1.1045695 0 2-.8954305 2-2v-24c0-1.1045695-.8954305-2-2-2zm-51 23c-.55228475 0-1-.4477153-1-1s.44771525-1 1-1 1 .4477153 1 1-.44771525 1-1 1zm0-8c-.55228475 0-1-.4477153-1-1s.44771525-1 1-1 1 .4477153 1 1-.44771525 1-1 1zm0-8c-.55228475 0-1-.4477153-1-1s.44771525-1 1-1 1 .4477153 1 1-.44771525 1-1 1zm3 12c-.55228475 0-1-.4477153-1-1s.44771525-1 1-1 1 .4477153 1 1-.44771525 1-1 1zm0-8c-.55228475 0-1-.4477153-1-1s.44771525-1 1-1 1 .4477153 1 1-.44771525 1-1 1zm3 12c-.5522847 0-1-.4477153-1-1s.4477153-1 1-1 1 .4477153 1 1-.4477153 1-1 1zm0-8c-.5522847 0-1-.4477153-1-1s.4477153-1 1-1 1 .4477153 1 1-.4477153 1-1 1zm0-8c-.5522847 0-1-.4477153-1-1s.4477153-1 1-1 1 .4477153 1 1-.4477153 1-1 1zm3 12c-.5522847 0-1-.4477153-1-1s.4477153-1 1-1 1 .4477153 1 1-.4477153 1-1 1zm3 4c-.5522847 0-1-.4477153-1-1s.4477153-1 1-1 1 .4477153 1 1-.4477153 1-1 1zm6 0c-.5522847 0-1-.4477153-1-1s.4477153-1 1-1 1 .4477153 1 1-.4477153 1-1 1zm6 0c-.5522847 0-1-.4477153-1-1s.4477153-1 1-1 1 .4477153 1 1-.4477153 1-1 1zm6 0c-.5522847 0-1-.4477153-1-1s.4477153-1 1-1 1 .4477153 1 1-.4477153 1-1 1zm6 0c-.5522847 0-1-.4477153-1-1s.4477153-1 1-1 1 .4477153 1 1-.4477153 1-1 1zm3-4c-.5522847 0-1-.4477153-1-1s.4477153-1 1-1 1 .4477153 1 1-.4477153 1-1 1zm3 4c-.5522847 0-1-.4477153-1-1s.4477153-1 1-1 1 .4477153 1 1-.4477153 1-1 1zm0-8c-.5522847 0-1-.4477153-1-1s.4477153-1 1-1 1 .4477153 1 1-.4477153 1-1 1zm0-8c-.5522847 0-1-.4477153-1-1s.4477153-1 1-1 1 .4477153 1 1-.4477153 1-1 1zm3 12c-.5522847 0-1-.4477153-1-1s.4477153-1 1-1 1 .4477153 1 1-.4477153 1-1 1zm0-8c-.5522847 0-1-.4477153-1-1s.4477153-1 1-1 1 .4477153 1 1-.4477153 1-1 1zm3 12c-.5522847 0-1-.4477153-1-1s.4477153-1 1-1 1 .4477153 1 1-.4477153 1-1 1zm0-8c-.5522847 0-1-.4477153-1-1s.4477153-1 1-1 1 .4477153 1 1-.4477153 1-1 1zm0-8c-.5522847 0-1-.4477153-1-1s.4477153-1 1-1 1 .4477153 1 1-.4477153 1-1 1z" data-original="#000000" class="active-path" data-old_color="#000000" fill="#FFFFFF"/><path id="Shape" d="m11.618.947c-2.5 3.248-6.565 10.2-6.565 13.477-.03312565 3.0492247 1.5746304 5.8811067 4.20995391 7.4153617 2.63532349 1.534255 5.89176869 1.534255 8.52709219 0s4.2430796-4.366137 4.2099539-7.4153617c0-3.282-4.066-10.224-6.565-13.477-.4539708-.59538138-1.1597888-.94479288-1.9085-.94479288s-1.4545292.3494115-1.9085.94479288zm1.667 17.53c-.0650869.2571418-.2296697.4778899-.4575334.6136704s-.5003378.175468-.7574666.1103296c-1.4570134-.2662414-2.70468389-1.2006984-3.37-2.524-1.038-2.252.246-4.9.3-5.014.24355757-.4970563.84394373-.7025576 1.341-.459.4970563.2435576.7025576.8439437.459 1.341-.5131331 1.023487-.6123332 2.2052933-.277 3.3.4245028.7642179 1.1802867 1.2875382 2.045 1.416.5331322.1386589.853724.6823683.717 1.216z" data-original="#000000" class="active-path" data-old_color="#000000" fill="#FFFFFF"/><path id="Shape" d="m45.707 14.293c-.3904999-.3903819-1.0235001-.3903819-1.414 0l-1 1c-.2859079.2859943-.3714219.7160366-.216678 1.0896546.1547439.3736179.5192821.6172591.923678.6173454.53 0 .675-.261 1.707-1.293.3903819-.3904999.3903819-1.0235001 0-1.414z" data-original="#000000" class="active-path" data-old_color="#000000" fill="#FFFFFF"/><path id="Shape" d="m39.293 19.293-1 1c-.3789722.3923789-.3735524 1.0160848.0121814 1.4018186s1.0094397.3911536 1.4018186.0121814l1-1c.3789722-.3923789.3735524-1.0160848-.0121814-1.4018186s-1.0094397-.3911536-1.4018186-.0121814z" data-original="#000000" class="active-path" data-old_color="#000000" fill="#FFFFFF"/><path id="Shape" d="m44.707 19.293c-.3923789-.3789722-1.0160848-.3735524-1.4018186.0121814s-.3911536 1.0094397-.0121814 1.4018186c1.06 1.061 1.187 1.293 1.707 1.293.4043959-.0000863.7689341-.2437275.923678-.6173454.1547439-.373618.0692299-.8036603-.216678-1.0896546z" data-original="#000000" class="active-path" data-old_color="#000000" fill="#FFFFFF"/><path id="Shape" d="m40.707 15.293-1-1c-.3923789-.3789722-1.0160848-.3735524-1.4018186.0121814s-.3911536 1.0094397-.0121814 1.4018186l1 1c.3923789.3789722 1.0160848.3735524 1.4018186-.0121814s.3911536-1.0094397.0121814-1.4018186z" data-original="#000000" class="active-path" data-old_color="#000000" fill="#FFFFFF"/><path id="Shape" d="m51.707 3.293c-.3904999-.39038194-1.0235001-.39038194-1.414 0l-1 1c-.2859079.28599425-.3714219.71603662-.216678 1.08965456s.5192821.61725909.923678.61734544c.53 0 .675-.261 1.707-1.293.3903819-.39049985.3903819-1.02350015 0-1.414z" data-original="#000000" class="active-path" data-old_color="#000000" fill="#FFFFFF"/><path id="Shape" d="m46.707 8.293c-.3904999-.39038194-1.0235001-.39038194-1.414 0l-1 1c-.2859079.28599425-.3714219.7160366-.216678 1.0896546.1547439.3736179.5192821.6172591.923678.6173454.53 0 .675-.261 1.707-1.293.3903819-.39049985.3903819-1.02350015 0-1.414z" data-original="#000000" class="active-path" data-old_color="#000000" fill="#FFFFFF"/><path id="Shape" d="m50.707 8.293c-.3923789-.37897221-1.0160848-.37355237-1.4018186.01218142-.3857338.3857338-.3911536 1.00943969-.0121814 1.40181858 1.06 1.061 1.187 1.293 1.707 1.293.4043959-.0000863.7689341-.2437275.923678-.6173454.1547439-.373618.0692299-.80366035-.216678-1.0896546z" data-original="#000000" class="active-path" data-old_color="#000000" fill="#FFFFFF"/><path id="Shape" d="m46.707 4.293-1-1c-.3923789-.37897221-1.0160848-.37355237-1.4018186.01218142-.3857338.3857338-.3911536 1.00943969-.0121814 1.40181858l1 1c.3923789.37897221 1.0160848.37355237 1.4018186-.01218142.3857338-.3857338.3911536-1.00943969.0121814-1.40181858z" data-original="#000000" class="active-path" data-old_color="#000000" fill="#FFFFFF"/></g></g> </svg>
