<?xml version="1.0"?>
<svg xmlns="http://www.w3.org/2000/svg" id="Capa_1" enable-background="new 0 0 512 512" height="512px" viewBox="0 0 512 512" width="512px" class=""><g><g><path d="m492 54.5h-118c-11.046 0-20 8.954-20 20v74.25h-98c-11.046 0-20 8.954-20 20v74.4h-98c-11.046 0-20 8.954-20 20v74.4h-98c-11.046 0-20 8.954-20 20v79.95c0 11.046 8.954 20 20 20h472c11.046 0 20-8.954 20-20v-363c0-11.046-8.954-20-20-20zm-20 363h-432v-39.95h98c11.046 0 20-8.955 20-20v-74.4h98c11.046 0 20-8.955 20-20v-74.4h98c11.046 0 20-8.954 20-20v-74.25h78z" data-original="#000000" class="active-path" data-old_color="#000000" fill="#FFFFFF"/></g></g> </svg>
