<?xml version="1.0"?>
<svg xmlns="http://www.w3.org/2000/svg" id="Capa_1" enable-background="new 0 0 512.103 512.103" height="512px" viewBox="0 0 512.103 512.103" width="512px" class=""><g><g><path d="m255.763 452.075c41.103 0 75.289-32.984 75.289-74.972 0-9.552-1.891-21.088-4.284-35.695-9.672-59.021-27.676-168.883 62.146-318.588 8.661-14.434-9.558-29.999-22.466-19.24-2.11 1.758-4.563 3.747-7.313 5.976-116.021 94.07-178.083 208.554-178.083 364.337 0 41.29 31.368 78.182 74.711 78.182z" data-original="#000000" class="active-path" data-old_color="#000000" fill="#FFFFFF"/><path d="m502.592 419.223c-17.1-6.8-37.16-4.73-52.36 5.4-8.61 5.74-19.75 5.74-28.36 0-18.72-12.48-42.92-12.48-61.64 0-3.94 2.62-8.4 4.04-12.91 4.26-18.12 31.74-52.38 53.19-91.56 53.19-39.24 0-72.27-21.65-90.21-53.16-4.77-.09-9.52-1.52-13.68-4.29-18.72-12.48-42.92-12.48-61.64 0-8.62 5.74-19.75 5.74-28.36 0-15.2-10.13-35.27-12.2-52.36-5.4-5.71 2.27-9.46 7.8-9.46 13.94v63.94c0 8.28 6.72 15 15 15h482c8.28 0 15-6.72 15-15v-63.94c0-6.14-3.75-11.67-9.46-13.94z" data-original="#000000" class="active-path" data-old_color="#000000" fill="#FFFFFF"/><path d="m497.052 302.103h-145.7c1.5 12.99 3.39 24.49 5.02 34.45 2.62 15.96 4.68 28.56 4.68 40.55 0 4.73-.32 9.39-.94 13.96 24.146-9.393 52.329-7.606 75.94 7.02 23.323-14.426 51.908-16.394 76-7.35v-73.63c0-8.28-6.72-15-15-15z" data-original="#000000" class="active-path" data-old_color="#000000" fill="#FFFFFF"/><path d="m76.052 398.083c23.423-14.51 51.826-16.581 76.35-6.85-.89-5.66-1.35-11.46-1.35-17.34 0-24.55 1.55-48.5 4.65-71.79h-140.65c-8.28 0-15 6.72-15 15v73.63c24.091-9.043 52.674-7.078 76 7.35z" data-original="#000000" class="active-path" data-old_color="#000000" fill="#FFFFFF"/></g></g> </svg>
