<?xml version="1.0"?>
<svg xmlns="http://www.w3.org/2000/svg" xmlns:xlink="http://www.w3.org/1999/xlink" version="1.1" id="Capa_1" x="0px" y="0px" viewBox="0 0 512 512" style="enable-background:new 0 0 512 512;" xml:space="preserve" width="512px" height="512px" class=""><g><g>
	<g>
		<path d="M256,25.77c-8.329,0-15.082,6.753-15.082,15.082v430.295c0,8.329,6.753,15.082,15.082,15.082    c8.329,0,15.082-6.753,15.082-15.082V40.852C271.082,32.523,264.329,25.77,256,25.77z" data-original="#000000" class="active-path" data-old_color="#000000" fill="#FFFFFF"/>
	</g>
</g><g>
	<g>
		<path d="M91.579,76.782c-30.944,0-56.118,25.174-56.118,56.118s25.175,56.116,56.118,56.116s56.118-25.173,56.118-56.117    C147.697,101.955,122.523,76.782,91.579,76.782z" data-original="#000000" class="active-path" data-old_color="#000000" fill="#FFFFFF"/>
	</g>
</g><g>
	<g>
		<path d="M180.69,229.112c-2.788-4.251-7.53-6.812-12.613-6.812H15.082c-5.084,0-9.825,2.561-12.613,6.812    c-2.787,4.251-3.246,9.619-1.219,14.282l76.497,175.977c2.394,5.508,7.827,9.07,13.831,9.07s11.437-3.562,13.831-9.07    l76.498-175.977C183.935,238.732,183.477,233.363,180.69,229.112z" data-original="#000000" class="active-path" data-old_color="#000000" fill="#FFFFFF"/>
	</g>
</g><g>
	<g>
		<path d="M420.421,76.781c-30.944,0-56.118,25.174-56.118,56.118s25.175,56.117,56.118,56.117s56.118-25.173,56.118-56.117    C476.539,101.955,451.365,76.781,420.421,76.781z" data-original="#000000" class="active-path" data-old_color="#000000" fill="#FFFFFF"/>
	</g>
</g><g>
	<g>
		<path d="M510.749,407.348l-76.497-175.977c-2.394-5.508-7.827-9.07-13.831-9.07c-6.005,0-11.437,3.562-13.831,9.07    l-76.498,175.977c-2.027,4.662-1.569,10.032,1.219,14.282c2.787,4.252,7.529,6.812,12.613,6.812h152.995    c5.084,0,9.825-2.561,12.613-6.812C512.318,417.378,512.776,412.009,510.749,407.348z" data-original="#000000" class="active-path" data-old_color="#000000" fill="#FFFFFF"/>
	</g>
</g></g> </svg>
